<svg id="SvgjsSvg1016" width="288" height="288" xmlns="http://www.w3.org/2000/svg" version="1.1" xmlns:xlink="http://www.w3.org/1999/xlink" xmlns:svgjs="http://svgjs.com/svgjs"><defs id="SvgjsDefs1017"></defs><g id="SvgjsG1018"><svg xmlns="http://www.w3.org/2000/svg" viewBox="0 0 12.7 12.7" width="288" height="288"><path style="line-height:normal;font-variant-ligatures:normal;font-variant-position:normal;font-variant-caps:normal;font-variant-numeric:normal;font-variant-alternates:normal;font-feature-settings:normal;text-indent:0;text-align:start;text-decoration-line:none;text-decoration-style:solid;text-decoration-color:#000;text-transform:none;text-orientation:mixed;white-space:normal;shape-padding:0;isolation:auto;mix-blend-mode:normal;solid-color:#000;solid-opacity:1" d="m 1.5882737,4.1 c 0,0 -0.1874141,-0.002 -0.3828125,0.0957 -0.1953984,0.0977 -0.4121093,0.346441 -0.4121093,0.699219 0,0.352777 0.216711,0.601519 0.4121093,0.699218 0.1953984,0.0977 0.3828125,0.09375 0.3828125,0.09375 h 2.1171875 c 0,0 0.1874142,0.0039 0.3828125,-0.09375 C 4.2836721,5.496437 4.49843,5.247696 4.49843,4.894919 4.49843,4.542141 4.2836721,4.293399 4.0882737,4.1957 3.8928753,4.098 3.7054612,4.1 3.7054612,4.1 Z m 0,0.529297 h 2.1171875 c 0,0 0.075346,0.0045 0.1445313,0.03906 0.069185,0.03459 0.1191406,0.05017 0.1191406,0.226563 0,0.176388 -0.049956,0.19197 -0.1191406,0.226562 -0.069185,0.03459 -0.1445313,0.03711 -0.1445313,0.03711 H 1.5882737 c 0,0 -0.077299,-0.0025 -0.1464844,-0.03711 -0.069185,-0.03459 -0.1191406,-0.05017 -0.1191406,-0.226562 0,-0.17639 0.049956,-0.19197 0.1191406,-0.226563 0.069185,-0.03459 0.1464844,-0.03906 0.1464844,-0.03906 z" color="#000" enable-background="accumulate" font-family="sans-serif" font-weight="400" overflow="visible" fill="#b300ff" class="color000 svgShape"></path><path style="line-height:normal;font-variant-ligatures:normal;font-variant-position:normal;font-variant-caps:normal;font-variant-numeric:normal;font-variant-alternates:normal;font-feature-settings:normal;text-indent:0;text-align:start;text-decoration-line:none;text-decoration-style:solid;text-decoration-color:#000;text-transform:none;text-orientation:mixed;white-space:normal;shape-padding:0;isolation:auto;mix-blend-mode:normal;solid-color:#000;solid-opacity:1" d="m 1.0589769,5.424219 v 5.291015 c 0,0 -0.00356,0.385461 0.1933593,0.779297 0.1969179,0.393836 0.6448789,0.808594 1.3945313,0.808594 0.7496524,0 1.1956602,-0.414758 1.3925781,-0.808594 C 4.2363635,11.100695 4.232805,10.715234 4.232805,10.715234 V 5.424219 H 3.7054612 v 5.291015 c 0,0 -0.00486,0.275347 -0.1386719,0.542969 -0.1338111,0.267622 -0.3466582,0.515625 -0.9199218,0.515625 -0.5732636,0 -0.7880639,-0.248003 -0.921875,-0.515625 C 1.5911814,10.990581 1.5882737,10.715234 1.5882737,10.715234 V 5.424219 Z" color="#000" enable-background="accumulate" font-family="sans-serif" font-weight="400" overflow="visible" fill="#b300ff" class="color000 svgShape"></path><path style="line-height:normal;font-variant-ligatures:normal;font-variant-position:normal;font-variant-caps:normal;font-variant-numeric:normal;font-variant-alternates:normal;font-feature-settings:normal;text-indent:0;text-align:start;text-decoration-line:none;text-decoration-style:solid;text-decoration-color:#000;text-transform:none;text-orientation:mixed;white-space:normal;shape-padding:0;isolation:auto;mix-blend-mode:normal;solid-color:#000;solid-opacity:1" d="M3.857805 7.451562C3.5415103 7.644637 3.1349915 7.805078 2.6468675 7.805078 2.0275777 7.805078 1.5136047 8.061213 1.1351487 8.35L1.4574143 8.769922C1.7734046 8.5288 2.1732926 8.334375 2.6468675 8.334375c.6046913 0 1.1081882-.200814 1.4863281-.431641zM7.6742112 4.1c0 0-.1893672-.002-.3847656.0957-.1953984.0977-.4101563.346441-.4101563.699219 0 .352777.2147579.601519.4101563.699218.1953984.0977.3847656.09375.3847656.09375h2.1152344c0 0 .1874142.0039.3828124-.09375.195398-.0977.412109-.346441.412109-.699218 0-.352778-.216711-.60152-.412109-.699219C9.9768597 4.098 9.7894456 4.1 9.7894456 4.1zm0 .529297h2.1152344c0 0 .0773.0045.1464844.03906.069185.03459.11914.05017.119141.226563 0 .176388-.04996.19197-.119141.226562-.069185.03459-.1464844.03711-.1464844.03711H7.6742112c0 0-.077299-.0025-.1464843-.03711-.069185-.03459-.1191407-.05017-.1191407-.226562 0-.17639.049956-.19197.1191407-.226563.069185-.03459.1464843-.03906.1464843-.03906z" color="#000" enable-background="accumulate" font-family="sans-serif" font-weight="400" overflow="visible" fill="#b300ff" class="color000 svgShape"></path><path style="line-height:normal;font-variant-ligatures:normal;font-variant-position:normal;font-variant-caps:normal;font-variant-numeric:normal;font-variant-alternates:normal;font-feature-settings:normal;text-indent:0;text-align:start;text-decoration-line:none;text-decoration-style:solid;text-decoration-color:#000;text-transform:none;text-orientation:mixed;white-space:normal;shape-padding:0;isolation:auto;mix-blend-mode:normal;solid-color:#000;solid-opacity:1" d="M 7.1449143,5.424219 V 6.633203 C 7.0908853,6.676883 7.0634063,6.689913 6.9632737,6.801172 6.7987995,6.983921 6.5882446,7.268027 6.3792893,7.685937 5.9613789,8.521758 5.5570237,9.887761 5.5570237,12.0375 a 0.26460966,0.26460966 0 0 0 0.2636719,0.265625 H 11.642961 A 0.26460966,0.26460966 0 0 0 11.906633,12.0375 c 0,-2.149739 -0.404355,-3.515742 -0.822266,-4.351563 C 10.875412,7.268027 10.662904,6.983921 10.49843,6.801172 10.39906,6.690765 10.372882,6.679016 10.318742,6.635156 V 5.424219 H 9.7894456 v 1.322265 a 0.26460966,0.26460966 0 0 0 0.1191406,0.220703 c 0,0 0.064084,0.03952 0.1972658,0.1875 0.133182,0.14798 0.31794,0.393692 0.505859,0.769532 0.356456,0.712911 0.703103,1.951419 0.740234,3.849609 H 6.1117112 C 6.1488422,9.875638 6.4954898,8.63713 6.8519456,7.924219 7.0398652,7.548379 7.224623,7.302667 7.357805,7.154687 7.4909869,7.006707 7.5550706,6.967187 7.5550706,6.967187 A 0.26460966,0.26460966 0 0 0 7.6742112,6.746484 V 5.424219 Z" color="#000" enable-background="accumulate" font-family="sans-serif" font-weight="400" overflow="visible" fill="#b300ff" class="color000 svgShape"></path><path style="line-height:normal;font-variant-ligatures:normal;font-variant-position:normal;font-variant-caps:normal;font-variant-numeric:normal;font-variant-alternates:normal;font-feature-settings:normal;text-indent:0;text-align:start;text-decoration-line:none;text-decoration-style:solid;text-decoration-color:#000;text-transform:none;text-orientation:mixed;white-space:normal;shape-padding:0;isolation:auto;mix-blend-mode:normal;solid-color:#000;solid-opacity:1" d="M11.000383 8.111719C10.579346 8.278332 9.8532036 8.46914 8.7308519 8.46914c-1.2845159 0-2.288987.417684-2.9082032.769532L6.0843675 9.699609C6.6460491 9.380453 7.5610893 8.998437 8.7308519 8.998437c1.182651 0 1.9788481-.202212 2.4648431-.394531zM6.3499925 1.71914c-.5813673 0-1.0585939.477227-1.0585938 1.058594-1e-7.581367.4772265 1.058594 1.0585938 1.058594.5813673 0 1.0585939-.477226 1.0585937-1.058594 2e-7-.581367-.4772264-1.058594-1.0585937-1.058594zm0 .529297c.2953844 0 .5292969.233912.5292968.529297 1e-7.295385-.2339124.529297-.5292968.529297-.2953844 0-.529297-.233912-.5292969-.529297-1e-7-.295384.2339125-.529297.5292969-.529297zM9.2601487 1.189843C8.8249079 1.189845 8.46718 1.549524 8.46718 1.984765c0 .435242.3577263.792969.7929687.792969.4352423 0 .7949223-.357726.7949223-.792969 0-.435241-.35968-.794922-.7949223-.794922zm0 .529297c.1492598 0 .265625.116367.265625.265625 0 .14926-.1163652.263672-.265625.263672-.1492603 0-.2636718-.114411-.2636718-.263672 0-.149258.1144119-.265624.2636718-.265625zM4.49843.396875c-.4352409.000001-.7929688.357727-.7929688.792968 0 .435242.3577263.794922.7929688.794922.4352422 0 .7929687-.359679.7929687-.794922 0-.435241-.3577265-.792968-.7929687-.792968zm0 .529297c.1492597 0 .2636719.114413.2636719.263671 0 .14926-.1144122.265626-.2636719.265626-.1492604 0-.265625-.116365-.265625-.265626 0-.149258.116365-.263671.265625-.263671zM5.5570237 4.1c-.4352408.000001-.7949219.35968-.7949218.794922 0 .435241.3596794.792968.7949218.792968.4352423 0 .7929688-.357726.7929688-.792968C6.3499925 4.45968 5.992266 4.1 5.5570237 4.1zm0 .529297c.1492598 0 .2636719.116366.2636719.265625 0 .149259-.1144121.263671-.2636719.263671-.1492603 0-.265625-.114411-.265625-.263671 0-.149259.1163651-.265625.265625-.265625z" color="#000" enable-background="accumulate" font-family="sans-serif" font-weight="400" overflow="visible" fill="#b300ff" class="color000 svgShape"></path><path style="line-height:normal;font-variant-ligatures:normal;font-variant-position:normal;font-variant-caps:normal;font-variant-numeric:normal;font-variant-alternates:normal;font-feature-settings:normal;text-indent:0;text-align:start;text-decoration-line:none;text-decoration-style:solid;text-decoration-color:#000;text-transform:none;text-orientation:mixed;white-space:normal;shape-padding:0;isolation:auto;mix-blend-mode:normal;solid-color:#000;solid-opacity:1" d="M4.9496019 1.267969l-.3730469.375.7929687.792968.375-.375zM8.6878831 1.988672L7.0999925 2.252343 7.1878831 2.773828 8.7757737 2.510156zM5.8343675 3.488672L5.5706956 4.28164 6.0726487 4.449609 6.3363206 3.654687z" color="#000" enable-background="accumulate" font-family="sans-serif" font-weight="400" overflow="visible" fill="#b300ff" class="color000 svgShape"></path></svg></g></svg>